<?xml version="1.0" encoding="UTF-8" standalone="no"?>
<!-- Created with Inkscape (http://www.inkscape.org/) -->

<svg
   xmlns:dc="http://purl.org/dc/elements/1.1/"
   xmlns:cc="http://creativecommons.org/ns#"
   xmlns:rdf="http://www.w3.org/1999/02/22-rdf-syntax-ns#"
   xmlns:svg="http://www.w3.org/2000/svg"
   xmlns="http://www.w3.org/2000/svg"
   xmlns:sodipodi="http://sodipodi.sourceforge.net/DTD/sodipodi-0.dtd"
   xmlns:inkscape="http://www.inkscape.org/namespaces/inkscape"
   width="116.71905mm"
   height="73.622787mm"
   viewBox="0 0 413.57143 260.86814"
   id="svg2"
   version="1.1"
   inkscape:version="0.91 r13725"
   sodipodi:docname="logoPeqNeverEat.svg">
  <defs
     id="defs4" />
  <sodipodi:namedview
     id="base"
     pagecolor="#ffffff"
     bordercolor="#666666"
     borderopacity="1.0"
     inkscape:pageopacity="0.0"
     inkscape:pageshadow="2"
     inkscape:zoom="0.35"
     inkscape:cx="218.92856"
     inkscape:cy="268.93957"
     inkscape:document-units="px"
     inkscape:current-layer="layer1"
     showgrid="false"
     fit-margin-top="0"
     fit-margin-left="0"
     fit-margin-right="0"
     fit-margin-bottom="0"
     inkscape:window-width="1360"
     inkscape:window-height="705"
     inkscape:window-x="-8"
     inkscape:window-y="-8"
     inkscape:window-maximized="1" />
  <metadata
     id="metadata7">
    <rdf:RDF>
      <cc:Work
         rdf:about="">
        <dc:format>image/svg+xml</dc:format>
        <dc:type
           rdf:resource="http://purl.org/dc/dcmitype/StillImage" />
        <dc:title></dc:title>
      </cc:Work>
    </rdf:RDF>
  </metadata>
  <g
     inkscape:label="Capa 1"
     inkscape:groupmode="layer"
     id="layer1"
     transform="translate(-156.07144,-540.43364)">
    <g
       id="g3357"
       transform="matrix(6.3626374,0,0,6.3626374,-636.07692,-616.29386)">
      <g
         id="XMLID_6_">
        <rect
           height="41"
           width="65"
           class="st0"
           y="181.8"
           x="124.5"
           id="XMLID_1_"
           style="fill:#344390" />
        <g
           id="XMLID_2_">
          <path
             d="m 158.7,219.3 -7.6,0 -13.9,-21.1 c -0.8,-1.2 -1.4,-2.2 -1.7,-2.8 l -0.1,0 c 0.1,1.2 0.2,3 0.2,5.4 l 0,18.5 -7.1,0 0,-33.6 8.2,0 13.3,20.5 c 0.6,0.9 1.2,1.8 1.7,2.7 l 0.1,0 c -0.1,-0.8 -0.2,-2.3 -0.2,-4.6 l 0,-18.6 7.1,0 0,33.6 z"
             class="st1"
             id="XMLID_4_"
             inkscape:connector-curvature="0"
             style="fill:#ffffff" />
          <path
             d="m 186.5,219.3 -20.2,0 0,-33.6 19.4,0 0,6.2 -11.7,0 0,7.5 11,0 0,6.1 -11,0 0,7.7 12.6,0 0,6.1 z"
             class="st1"
             id="XMLID_7_"
             inkscape:connector-curvature="0"
             style="fill:#ffffff" />
        </g>
      </g>
      <g
         id="XMLID_3_" />
      <g
         id="XMLID_9_" />
      <g
         id="XMLID_10_" />
      <g
         id="XMLID_11_" />
      <g
         id="XMLID_12_" />
      <g
         id="XMLID_13_" />
    </g>
  </g>
  <style
     id="style3337"
     type="text/css">
	.st0{fill:#344390;}
	.st1{fill:#FFFFFF;}
</style>
</svg>
