<?xml version="1.0" standalone="no"?>
<!DOCTYPE svg PUBLIC "-//W3C//DTD SVG 20010904//EN"
 "http://www.w3.org/TR/2001/REC-SVG-20010904/DTD/svg10.dtd">
<svg version="1.0" xmlns="http://www.w3.org/2000/svg"
 width="16.000000pt" height="16.000000pt" viewBox="0 0 16.000000 16.000000"
 preserveAspectRatio="xMidYMid meet">
<metadata>
Created by potrace 1.11, written by Peter Selinger 2001-2013
</metadata>
<g transform="translate(0.000000,16.000000) scale(0.001932,-0.001932)"
fill="#000000" stroke="none">
<path d="M10 4140 l0 -2610 4135 0 4135 0 0 2610 0 2610 -4135 0 -4135 0 0
-2610z m2432 749 c485 -749 916 -1415 957 -1481 40 -66 77 -116 82 -111 4 4 3
49 -3 98 -6 57 -12 597 -15 1473 l-4 1382 450 0 451 0 0 -2135 0 -2135 -482 0
-483 1 -720 1095 c-1117 1700 -1167 1776 -1215 1862 -51 92 -76 107 -66 40 17
-121 26 -703 26 -1790 l0 -1208 -450 0 -450 0 0 2135 0 2135 519 0 519 0 884
-1361z m5348 971 l0 -390 -745 0 -745 0 2 -482 3 -483 698 -3 697 -2 0 -380 0
-380 -697 -2 -698 -3 -3 -492 -2 -493 802 -2 803 -3 3 -383 2 -382 -1290 0
-1290 0 0 2135 0 2135 1230 0 1230 0 0 -390z"/>
</g>
</svg>
